<svg class="border shadow-md" viewBox="0 0 844.8 475.2" style="width: 844.8px; height: 475.2px;" xmlns="http://www.w3.org/2000/svg" preserveAspectRatio="none"><rect class="bg" id="bg" x="0" y="0" width="844.8" height="475.2" fill="#ffffff"/><g transform="rotate(0 422.4 237.6)"><path d="M -522.40 -49.20 S -271.20 -109.20&#10;            0.00 -49.20 115.40 -121.20&#10;            522.40 -49.20 765.80 -88.80&#10;            1044.80 -49.20 1121.20 -88.80&#10;            1567.20 -49.20 h 110 V 675.2 H -522.40 Z" fill="#FFFFFF" id="-1"/><path d="M -522.40 30.00 S -307.00 -9.60&#10;            0.00 30.00 251.20 -33.00&#10;            522.40 30.00 773.60 -9.60&#10;            1044.80 30.00 1296.00 -19.00&#10;            1567.20 30.00 h 110 V 675.2 H -522.40 Z" fill="#dedede" id="0"/><path id="1" d="M -522.40 109.20 S -271.20 50.20&#10;            0.00 109.20 251.20 55.20&#10;            522.40 109.20 773.60 45.20&#10;            1044.80 109.20 1296.00 36.20&#10;            1567.20 109.20 h 110 V 675.2 H -522.40 Z" fill="#bdbdbd"/><path id="2" d="M -522.40 188.40 S -382.00 133.40&#10;            0.00 188.40 251.20 148.80&#10;            522.40 188.40 556.80 148.80&#10;            1044.80 188.40 1296.00 148.80&#10;            1567.20 188.40 h 110 V 675.2 H -522.40 Z" fill="#9c9c9c"/><path id="3" d="M -522.40 267.60 S -271.20 190.60&#10;            0.00 267.60 251.20 228.00&#10;            522.40 267.60 699.80 228.00&#10;            1044.80 267.60 1148.20 189.60&#10;            1567.20 267.60 h 110 V 675.2 H -522.40 Z" fill="#7b7b7b"/><path id="4" d="M -522.40 346.80 S -494.00 283.80&#10;            0.00 346.80 198.40 307.20&#10;            522.40 346.80 618.80 307.20&#10;            1044.80 346.80 1296.00 282.80&#10;            1567.20 346.80 h 110 V 675.2 H -522.40 Z" fill="#5a5a5a"/><path id="5" d="M -522.40 426.00 S -271.20 380.00&#10;            0.00 426.00 44.40 355.00&#10;            522.40 426.00 773.60 378.00&#10;            1044.80 426.00 1169.20 362.00&#10;            1567.20 426.00 h 110 V 675.2 H -522.40 Z" fill="#393939"/></g></svg>